<svg xmlns="http://www.w3.org/2000/svg" width="48" height="48" viewBox="0 0 48 48"><defs><style>.a{fill:#613e33;}.b{fill:#e1c9a6;}</style></defs><g transform="translate(-804 -516)"><path class="a" d="M0,0H48V48H0Z" transform="translate(804 516)"/><path class="b" d="M14.028-7.84a6.544,6.544,0,0,0-1.736-4.7A5.865,5.865,0,0,0,7.84-14.336,5.636,5.636,0,0,0,3.3-12.264,7.847,7.847,0,0,0,1.568-7.056,7.924,7.924,0,0,0,3.3-1.82,5.613,5.613,0,0,0,7.84.224c2.688,0,4.452-1.092,5.88-3.892l-1.54-.756C11.144-2.268,9.968-1.4,7.84-1.4c-2.772,0-4.452-2.3-4.452-5.656h10.64ZM7.84-12.712a4.218,4.218,0,0,1,4.4,4.032H3.5C3.976-11.06,5.572-12.712,7.84-12.712Zm8.932,11.34A1.367,1.367,0,0,0,18.2.056a1.4,1.4,0,0,0,1.428-1.428A1.4,1.4,0,0,0,18.2-2.8,1.4,1.4,0,0,0,16.772-1.372Z" transform="translate(817.402 547.056)"/></g></svg>