<svg width="58" height="14" viewBox="0 0 58 14" fill="none" xmlns="http://www.w3.org/2000/svg">
    <path d="M7.998 5.18C7.99679 4.18513 7.67992 3.21631 7.093 2.413C6.73772 1.95037 6.27601 1.58033 5.7471 1.33433C5.21819 1.08833 4.63772 0.973642 4.055 1C1.155 1 0 3.348 0 5.36C0 7.372 1.155 9.719 4.055 9.719C4.87393 9.76945 5.68764 9.5577 6.37811 9.11447C7.06858 8.67124 7.59989 8.01958 7.895 7.254L6.218 6.634C6.03374 7.02117 5.74465 7.34895 5.38354 7.58014C5.02243 7.81134 4.60375 7.9367 4.175 7.942C3.91761 7.94986 3.66122 7.90641 3.42078 7.81421C3.18034 7.722 2.96065 7.58287 2.77452 7.40492C2.58838 7.22697 2.43951 7.01376 2.33658 6.77771C2.23365 6.54166 2.17873 6.28749 2.175 6.03H7.998V5.18ZM4.055 2.78C4.50602 2.76384 4.94592 2.92214 5.28321 3.222C5.62051 3.52186 5.82924 3.94019 5.866 4.39H2.23C2.28764 3.94614 2.50441 3.53828 2.84006 3.24218C3.17571 2.94607 3.60741 2.78185 4.055 2.78ZM12.573 3.333L11.198 1.133H9.021L11.469 5.073L8.669 9.585H10.849L12.576 6.835L14.303 9.585H16.483L13.683 5.074L16.131 1.134H13.955L12.573 3.333ZM22.08 9.722C24.562 9.722 25.937 8.028 25.937 5.362C25.937 2.696 24.565 1 22.083 1C21.6859 0.988769 21.292 1.07451 20.9355 1.2498C20.579 1.4251 20.2706 1.68466 20.037 2.006V1.134H17.955V13.006H20.034V8.814C20.2945 9.09819 20.6111 9.32532 20.9637 9.48108C21.3164 9.63684 21.6975 9.71785 22.083 9.719L22.08 9.722ZM23.203 7.257C23.0379 7.47335 22.8245 7.64813 22.5799 7.76741C22.3353 7.88668 22.0661 7.94716 21.794 7.944C21.523 7.95029 21.2543 7.89285 21.0096 7.7763C20.7649 7.65975 20.5509 7.48736 20.385 7.273C20 6.71227 19.8134 6.03893 19.855 5.36C19.8156 4.6859 20.0048 4.01823 20.392 3.465C20.557 3.24943 20.77 3.07528 21.0141 2.95638C21.2581 2.83747 21.5265 2.77708 21.798 2.78C22.0701 2.77685 22.3393 2.83732 22.5839 2.9566C22.8285 3.07587 23.0419 3.25065 23.207 3.467C23.6048 4.01576 23.8002 4.6854 23.76 5.362C23.7995 6.03759 23.6042 6.70605 23.207 7.254L23.203 7.257ZM29.843 6.586C29.843 4.02 30.782 2.864 32.107 2.864C32.4135 2.86228 32.7148 2.94348 32.979 3.099L33.365 1.171C33.036 1.06134 32.6918 1.00365 32.345 1C31.8338 1.01558 31.3352 1.16261 30.8973 1.42692C30.4594 1.69123 30.097 2.0639 29.845 2.509V1.134H27.768V9.585H29.847L29.843 6.586ZM42.255 5.18C42.2538 4.18513 41.9369 3.21631 41.35 2.413C40.995 1.9508 40.5338 1.58102 40.0054 1.33504C39.4771 1.08906 38.8972 0.974132 38.315 1C35.415 1 34.257 3.348 34.257 5.36C34.257 7.372 35.414 9.72 38.315 9.72C39.1341 9.77037 39.9479 9.55848 40.6383 9.11506C41.3288 8.67164 41.8601 8.01977 42.155 7.254L40.478 6.634C40.2935 7.02162 40.004 7.3497 39.6423 7.58093C39.2806 7.81216 38.8613 7.93726 38.432 7.942C38.1746 7.94986 37.9182 7.90641 37.6778 7.81421C37.4373 7.722 37.2177 7.58287 37.0315 7.40492C36.8454 7.22697 36.6965 7.01376 36.5936 6.77771C36.4907 6.54166 36.4357 6.28749 36.432 6.03H42.255V5.18ZM38.315 2.78C38.766 2.76384 39.2059 2.92214 39.5432 3.222C39.8805 3.52186 40.0892 3.94019 40.126 4.39H36.487C36.5447 3.94563 36.7619 3.53736 37.0982 3.24119C37.4345 2.94502 37.8669 2.78112 38.315 2.78ZM46.732 1C46.3762 0.985189 46.021 1.04131 45.6871 1.16509C45.3531 1.28887 45.0472 1.47784 44.787 1.721C44.5454 1.94209 44.3532 2.21175 44.2231 2.5123C44.093 2.81286 44.0279 3.13752 44.032 3.465C44.0212 3.98149 44.1837 4.4867 44.4937 4.89998C44.8037 5.31326 45.2431 5.61077 45.742 5.745C46.061 5.879 46.647 6.064 46.933 6.198C47.0954 6.25034 47.2527 6.31728 47.403 6.398C47.5349 6.44457 47.6493 6.53076 47.7304 6.64478C47.8114 6.7588 47.8553 6.89509 47.856 7.035C47.856 7.635 47.504 7.94 46.816 7.94C46.4193 7.93005 46.0372 7.78788 45.7305 7.53606C45.4238 7.28424 45.21 6.93719 45.123 6.55L43.463 7.439C43.7346 8.07132 44.1682 8.62081 44.72 9.032C45.3221 9.49204 46.0624 9.73424 46.82 9.719C47.2168 9.73617 47.6129 9.67222 47.9841 9.53106C48.3554 9.38989 48.6939 9.17448 48.979 8.898C49.2488 8.64025 49.4625 8.32958 49.6067 7.98544C49.7509 7.6413 49.8225 7.27109 49.817 6.898C49.8105 6.39282 49.6264 5.90604 49.297 5.523C49.1282 5.33899 48.9242 5.19072 48.697 5.087C48.5035 4.96883 48.3032 4.86231 48.097 4.768L47.376 4.516L46.776 4.298C46.239 4.098 45.976 3.828 45.976 3.476C45.9763 3.37802 45.997 3.28116 46.0367 3.19162C46.0765 3.10207 46.1346 3.02181 46.2071 2.95594C46.2796 2.89008 46.3651 2.84006 46.4581 2.80907C46.551 2.77809 46.6494 2.76683 46.747 2.776C47.0234 2.77905 47.2952 2.84751 47.5401 2.97578C47.785 3.10406 47.9961 3.28849 48.156 3.514L49.397 2.374C49.1016 1.94189 48.7034 1.59005 48.2382 1.35019C47.7729 1.11033 47.2553 0.989988 46.732 1ZM54.294 1C53.9382 0.985189 53.583 1.04131 53.2491 1.16509C52.9151 1.28887 52.6092 1.47784 52.349 1.721C52.1074 1.94209 51.9152 2.21175 51.7851 2.5123C51.655 2.81286 51.5899 3.13752 51.594 3.465C51.5832 3.98149 51.7457 4.4867 52.0557 4.89998C52.3657 5.31326 52.8051 5.61077 53.304 5.745C53.623 5.879 54.209 6.064 54.495 6.198C54.6574 6.25034 54.8147 6.31728 54.965 6.398C55.0969 6.44457 55.2113 6.53076 55.2924 6.64478C55.3734 6.7588 55.4173 6.89509 55.418 7.035C55.418 7.635 55.066 7.94 54.378 7.94C53.9813 7.93005 53.5992 7.78788 53.2925 7.53606C52.9858 7.28424 52.772 6.93719 52.685 6.55L51.025 7.439C51.2969 8.07144 51.7308 8.62094 52.283 9.032C52.8851 9.49204 53.6254 9.73424 54.383 9.719C54.7798 9.73617 55.1759 9.67222 55.5471 9.53106C55.9184 9.38989 56.2569 9.17448 56.542 8.898C56.8118 8.64025 57.0255 8.32958 57.1697 7.98544C57.3139 7.6413 57.3855 7.27109 57.38 6.898C57.3735 6.39282 57.1894 5.90604 56.86 5.523C56.6912 5.33899 56.4872 5.19072 56.26 5.087C56.0665 4.96883 55.8662 4.86231 55.66 4.768L54.939 4.516L54.339 4.298C53.802 4.098 53.539 3.828 53.539 3.476C53.5393 3.37802 53.56 3.28116 53.5997 3.19162C53.6395 3.10207 53.6976 3.02181 53.7701 2.95594C53.8426 2.89008 53.9281 2.84006 54.0211 2.80907C54.114 2.77809 54.2124 2.76683 54.31 2.776C54.5864 2.77905 54.8582 2.84751 55.1031 2.97578C55.348 3.10406 55.5591 3.28849 55.719 3.514L56.96 2.374C56.6646 1.94189 56.2664 1.59005 55.8012 1.35019C55.3359 1.11033 54.8173 0.989988 54.294 1Z" fill="#393939"/>
</svg>
