<svg xmlns="http://www.w3.org/2000/svg" xmlns:xlink="http://www.w3.org/1999/xlink" width="145" height="50" viewBox="0 0 145 50">
  <defs>
    <clipPath id="mask_l">
      <rect id="mask" width="88" height="47" transform="translate(197 41)"/>
    </clipPath>
  </defs>
  <g id="musify_logo" transform="translate(-140 -39)">
    <g transform="translate(0 -1)">
      <g id="rect_l" transform="translate(140 40)" fill="none" stroke="currentColor" stroke-width="6">
        <rect width="50" height="50" stroke="none"/>
        <rect x="3" y="3" width="44" height="44" fill="none"/>
      </g>
      <g id="music_l" data-name="Music 1 - SVG" transform="translate(153 53)">
        <circle cx="3" cy="3" r="3" transform="translate(6 15)" fill="#292929" opacity="0.16"/>
        <circle cx="3" cy="3" r="3" transform="translate(6 15)" fill="none" stroke="#292929" stroke-linecap="round" stroke-linejoin="round" stroke-width="2"/>
        <path d="M12,18V3" fill="none" stroke="#292929" stroke-linecap="round" stroke-linejoin="round" stroke-width="2"/>
        <path d="M12,3l6,1V8L12,7Z" fill="none" stroke="#292929" stroke-linecap="round" stroke-linejoin="round" stroke-width="2"/>
      </g>
    </g>
    <g clip-path="url(#mask_l)">
      <g id="ne_text_group">
        <path id="ne_musify" d="M12.783-9.2c0-1.88-.795-2.9-2.256-2.9a2.219,2.219,0,0,0-2.2,2.009H8.014c-.247-1.278-1-2.009-2.073-2.009A2.254,2.254,0,0,0,3.7-9.99H3.384v-1.858H.816V0H3.309V-8.132c0-.87.462-1.429,1.171-1.429s1.1.5,1.1,1.354V0h2.46V-8.132c0-.87.462-1.429,1.16-1.429.677,0,1.1.5,1.1,1.354V0h2.492Zm12.891-2.653H22.741V-5A2.418,2.418,0,0,1,20.26-2.32c-1.493,0-2.191-.827-2.191-2.567v-6.961H15.125v7.67c0,2.89,1.375,4.437,3.953,4.437a3.607,3.607,0,0,0,3.566-2.245h.183V0h2.847ZM29.208-8.39c0,1.826,1.128,2.986,3.352,3.47l1.772.376c1.246.269,1.7.591,1.7,1.257,0,.773-.773,1.278-1.977,1.278-1.225,0-2.02-.451-2.2-1.268h-2.9C29.111-1.053,30.98.247,34.01.247c3.083,0,5.038-1.515,5.038-3.91,0-1.8-1.063-2.825-3.459-3.319l-1.837-.376c-1.149-.236-1.644-.623-1.644-1.268,0-.752.741-1.257,1.858-1.257,1.1,0,1.869.483,2.009,1.268h2.771c-.14-2.224-1.891-3.513-4.759-3.513C31.056-12.128,29.208-10.688,29.208-8.39Zm18.563-5.876a1.84,1.84,0,0,0,2.02-1.858,1.84,1.84,0,0,0-2.02-1.858,1.831,1.831,0,0,0-2.009,1.858A1.831,1.831,0,0,0,47.771-14.266ZM52.83,0V-2.342H49.253v-9.507H42.786V-9.5H46.4v7.154h-3.8V0Zm6.338,0h2.943V-9.378h4.716V-11.73h-4.78v-1.031c0-.881.569-1.332,1.676-1.332.279,0,2.879.011,3.1.032v-2.159c-.172-.021-2.9-.043-3.19-.043-3.2,0-4.469,1.01-4.469,3.7v.838H56.01v2.353h3.158ZM71.3,4.275C74.2,4.275,75.582,3.2,76.6.15l4.082-12H77.569L74.948-2.707h-.183l-2.621-9.142H68.9L73.068.086,72.95.537c-.279.935-.935,1.343-2.127,1.343a5.539,5.539,0,0,1-.655-.032V4.254C70.254,4.265,70.791,4.275,71.3,4.275Z" transform="translate(204 58.982)"/>
        <g id="ne_text" transform="translate(-5 -1)">
          <path id="neon" d="M8.982-3.528,3.816-12.6H1.692V0h1.98V-9.036L8.838,0h2.124V-12.6H8.982ZM17.46-7.56a2.131,2.131,0,0,1,2.2,1.98h-4.41A2.207,2.207,0,0,1,17.46-7.56Zm4.176,2.736A4.143,4.143,0,0,0,17.46-9.216c-2.988,0-4.23,2.52-4.23,4.68S14.472.144,17.46.144a3.968,3.968,0,0,0,3.978-2.556l-1.6-.63a2.618,2.618,0,0,1-2.376,1.53,2.255,2.255,0,0,1-2.25-2.5h6.426Zm3.006,3.618A4.184,4.184,0,0,0,27.9.144a4.146,4.146,0,0,0,3.24-1.35,4.813,4.813,0,0,0,1.224-3.33,4.813,4.813,0,0,0-1.224-3.33,4.146,4.146,0,0,0-3.24-1.35,4.184,4.184,0,0,0-3.258,1.35,4.8,4.8,0,0,0-1.206,3.33A4.8,4.8,0,0,0,24.642-1.206ZM26.064-6.66a2.188,2.188,0,0,1,1.836-.9,2.133,2.133,0,0,1,1.818.9,3.4,3.4,0,0,1,.666,2.124,3.451,3.451,0,0,1-.666,2.142,2.118,2.118,0,0,1-1.818.882,2.173,2.173,0,0,1-1.836-.882,3.555,3.555,0,0,1-.648-2.142A3.5,3.5,0,0,1,26.064-6.66ZM34.434,0h1.872V-3.672A5.168,5.168,0,0,1,36.99-6.5,1.988,1.988,0,0,1,38.628-7.56c.936,0,1.4.558,1.4,1.656V0H41.9V-6.5A2.492,2.492,0,0,0,39.24-9.216a3.376,3.376,0,0,0-2.934,1.692V-9.072H34.434Z" transform="translate(230.816 83.982)" fill="currentColor"/>
          <path id="by" d="M1.818,0H6.156c2.376,0,3.87-1.422,3.87-3.636A3.255,3.255,0,0,0,7.794-6.894,2.772,2.772,0,0,0,9.378-9.36c0-2.034-1.3-3.24-3.51-3.24H1.818Zm4.1-6.156c1.89,0,2.862.72,2.862,2.52s-.972,2.52-2.862,2.52H3.006v-5.04Zm-.054-5.328c1.53,0,2.286.7,2.286,2.106S7.4-7.272,5.868-7.272H3.006v-4.212Zm9.4,9.756-2.7-7.344h-1.17L14.652-.054,13.338,3.672h1.116l4.5-12.744h-1.17Z" transform="translate(207.816 83.982)"/>
        </g>
      </g>
    </g>
  </g>
</svg>
