<svg width="43" height="9" viewBox="0 0 43 9" fill="none" xmlns="http://www.w3.org/2000/svg">
<path d="M0 2.247L1.184 8.634H2.49L5.918 2.247H4.618L2.086 7.434H1.998L1.213 2.247H0ZM10.26 7.597L11.567 0.179H10.325L7.752 1.597L7.547 2.797L10.078 1.434H10.154L9.054 7.592H6.703L6.525 8.634H12.466L12.642 7.597H10.26ZM16.86 8.697C17.1613 8.69174 17.4483 8.56759 17.6585 8.35161C17.8687 8.13564 17.9849 7.84534 17.982 7.544C17.9847 7.24269 17.8677 6.95263 17.6568 6.73742C17.4459 6.52221 17.1583 6.39943 16.857 6.396C16.5557 6.39943 16.2681 6.52221 16.0572 6.73742C15.8463 6.95263 15.7293 7.24269 15.732 7.544C15.7301 7.84516 15.8473 8.13488 16.058 8.35007C16.2687 8.56527 16.5559 8.68852 16.857 8.693L16.86 8.697ZM24.348 8.814C26.059 8.814 27.289 7.431 27.723 5.076C27.746 4.953 27.834 4.461 27.84 4.326C27.8946 3.96926 27.922 3.60889 27.922 3.248C27.94 1.191 26.973 0.00799942 25.291 0.00799942C23.609 0.00799942 22.373 1.373 21.922 3.708C21.91 3.778 21.828 4.218 21.822 4.294C21.7513 4.73186 21.7142 5.17448 21.711 5.618C21.697 7.634 22.658 8.81 24.346 8.81L24.348 8.814ZM25.248 1.074C26.01 1.074 26.525 1.59 26.684 2.504L22.925 5.118C22.9337 4.85642 22.9632 4.59594 23.013 4.339L23.077 3.97C23.414 2.142 24.205 1.07 25.248 1.07V1.074ZM24.375 7.734C23.607 7.734 23.104 7.224 22.945 6.298L26.707 3.661C26.7054 3.93211 26.6819 4.20264 26.637 4.47L26.567 4.839C26.238 6.683 25.447 7.734 24.375 7.734ZM31.693 8.689C31.9934 8.68453 32.28 8.56183 32.4906 8.3475C32.7012 8.13316 32.8188 7.84447 32.818 7.544C32.8207 7.24269 32.7037 6.95263 32.4928 6.73742C32.2819 6.52221 31.9943 6.39943 31.693 6.396C31.3917 6.39943 31.1041 6.52221 30.8932 6.73742C30.6823 6.95263 30.5653 7.24269 30.568 7.544C30.5661 7.84516 30.6833 8.13488 30.894 8.35007C31.1047 8.56527 31.3919 8.68852 31.693 8.693V8.689ZM39.181 8.806C40.892 8.806 42.122 7.423 42.556 5.068C42.579 4.945 42.667 4.453 42.673 4.318C42.7276 3.96126 42.755 3.60089 42.755 3.24C42.773 1.183 41.806 0 40.124 0C38.442 0 37.206 1.365 36.755 3.7C36.743 3.77 36.661 4.21 36.655 4.286C36.5843 4.72386 36.5472 5.16648 36.544 5.61C36.533 7.634 37.494 8.81 39.182 8.81L39.181 8.806ZM40.081 1.066C40.843 1.066 41.358 1.582 41.517 2.496L37.764 5.118C37.7727 4.85642 37.8022 4.59594 37.852 4.339L37.916 3.97C38.25 2.142 39.041 1.07 40.084 1.07L40.081 1.066ZM39.211 7.734C38.443 7.734 37.94 7.224 37.781 6.298L41.543 3.661C41.5414 3.93211 41.5179 4.20264 41.473 4.47L41.403 4.839C41.074 6.683 40.283 7.734 39.211 7.734Z" fill="black"/>
</svg>
