<svg width="87" height="22" viewBox="0 0 87 22" fill="none" xmlns="http://www.w3.org/2000/svg">
    <path d="M18.979 16.737L10.179 21.716V17.839L15.663 14.822L18.979 16.737ZM19.579 16.192V5.78101L16.36 7.642V14.335L19.579 16.192ZM0.599998 16.737L9.4 21.716V17.839L3.913 14.822L0.599998 16.737ZM0 16.192V5.78101L3.219 7.642V14.335L0 16.192ZM0.377998 5.10602L9.404 0V3.74701L3.62 6.92902L3.57401 6.95502L0.377998 5.10602ZM19.204 5.10602L10.178 0V3.74701L15.962 6.92599L16.008 6.952L19.204 5.10602Z" fill="#C4C4C4"/>
    <path d="M9.40602 16.956L3.99402 13.979V8.08603L9.40602 11.21V16.956ZM10.179 16.956L15.591 13.982V8.082L10.179 11.206V16.956ZM4.36002 7.40503L9.79201 4.41901L15.224 7.40503L9.79201 10.541L4.36002 7.40503Z" fill="#646464"/>
    <path d="M32.2319 14.85H34.6119L37.038 6.767H34.719L33.282 12.502L31.75 6.767H29.7419L28.1959 12.502L26.7739 6.767H24.455L26.8669 14.85H29.2469L30.7469 9.672L32.2319 14.85ZM37.162 10.832C37.1349 11.3961 37.2266 11.9596 37.4312 12.486C37.6357 13.0124 37.9485 13.4899 38.3494 13.8877C38.7502 14.2855 39.2301 14.5948 39.7581 14.7953C40.286 14.9959 40.8501 15.0833 41.4139 15.052C42.0867 15.08 42.755 14.9306 43.3518 14.6187C43.9486 14.3067 44.4529 13.8434 44.814 13.275L43.406 12.208C43.1836 12.52 42.8885 12.773 42.5463 12.9453C42.2041 13.1177 41.8251 13.2041 41.442 13.197C41.1818 13.2156 40.9205 13.1821 40.6733 13.0985C40.4262 13.0149 40.1982 12.8829 40.0027 12.7102C39.8072 12.5375 39.648 12.3275 39.5345 12.0926C39.4211 11.8577 39.3556 11.6025 39.3419 11.342H45.0339C45.0489 11.186 45.049 11.033 45.049 10.878C45.049 8.23602 43.6269 6.565 41.1229 6.565C40.5777 6.5691 40.0391 6.68465 39.5402 6.90451C39.0412 7.12437 38.5924 7.44392 38.2214 7.84354C37.8505 8.24315 37.5651 8.71439 37.3829 9.2283C37.2007 9.74222 37.1256 10.288 37.162 10.832ZM39.403 9.94901C39.423 9.50187 39.617 9.08028 39.9436 8.77423C40.2702 8.46819 40.7035 8.30195 41.151 8.311C41.3734 8.30007 41.5956 8.33427 41.8044 8.41153C42.0133 8.48879 42.2044 8.60752 42.3661 8.76056C42.5278 8.9136 42.6568 9.09778 42.7455 9.30203C42.8341 9.50628 42.8806 9.72635 42.882 9.94901H39.403ZM45.85 14.849H47.861V14.015C48.1635 14.3495 48.5343 14.6151 48.9484 14.7938C49.3624 14.9726 49.8101 15.0603 50.261 15.051C50.806 15.0559 51.3459 14.9476 51.8468 14.7328C52.3477 14.518 52.7985 14.2015 53.1707 13.8033C53.5428 13.4052 53.8281 12.934 54.0085 12.4198C54.189 11.9056 54.2607 11.3594 54.219 10.816C54.219 8.31601 52.705 6.56702 50.385 6.56702C49.932 6.5519 49.4812 6.63835 49.0659 6.82004C48.6506 7.00172 48.2814 7.27403 47.985 7.617V3.67401H45.855V14.849H45.85ZM47.9209 10.831C47.8824 10.5353 47.9072 10.2349 47.9934 9.94943C48.0796 9.664 48.2254 9.40007 48.4211 9.17514C48.6169 8.95021 48.858 8.76936 49.1288 8.64453C49.3996 8.5197 49.6938 8.45376 49.9919 8.45102C50.2889 8.45749 50.5813 8.52593 50.8502 8.65198C51.1192 8.77803 51.3588 8.95891 51.5538 9.18298C51.7488 9.40706 51.8949 9.66942 51.9825 9.95322C52.0702 10.237 52.0976 10.536 52.063 10.831C52.0971 11.1236 52.0689 11.4201 51.9805 11.701C51.892 11.982 51.7453 12.2412 51.5498 12.4615C51.3543 12.6818 51.1145 12.8584 50.8461 12.9796C50.5776 13.1008 50.2865 13.164 49.9919 13.165C49.699 13.1591 49.4105 13.0927 49.1445 12.9699C48.8786 12.8471 48.641 12.6706 48.4465 12.4514C48.2521 12.2323 48.105 11.9753 48.0148 11.6966C47.9245 11.4179 47.893 11.1235 47.922 10.832L47.9209 10.831ZM55.0459 17.74H57.178V14.013C57.4778 14.3509 57.8481 14.6188 58.2628 14.7978C58.6775 14.9768 59.1265 15.0626 59.578 15.049C61.897 15.049 63.412 13.304 63.412 10.8C63.4528 10.2568 63.3805 9.71095 63.1998 9.19702C63.0191 8.68309 62.7338 8.21218 62.3621 7.814C61.9903 7.41581 61.54 7.09897 61.0397 6.88348C60.5393 6.668 59.9997 6.55855 59.455 6.56201C59.0025 6.55123 58.5532 6.63965 58.1385 6.82104C57.7239 7.00244 57.3541 7.27241 57.0549 7.612V6.76202H55.0439V17.738L55.0459 17.74ZM57.1169 10.785C57.0874 10.4933 57.1187 10.1986 57.2089 9.91959C57.299 9.64057 57.4461 9.38327 57.6407 9.16394C57.8354 8.94461 58.0733 8.768 58.3396 8.64529C58.6059 8.52259 58.8948 8.45644 59.188 8.45102C59.4825 8.452 59.7735 8.51518 60.042 8.63641C60.3105 8.75765 60.5503 8.93418 60.7458 9.15451C60.9414 9.37484 61.0881 9.634 61.1765 9.91498C61.2649 10.196 61.293 10.4924 61.2589 10.785C61.2938 11.0801 61.2668 11.3792 61.1792 11.6631C61.0916 11.9471 60.9457 12.2095 60.7506 12.4337C60.5556 12.6578 60.3157 12.8387 60.0466 12.9646C59.7775 13.0906 59.4851 13.1588 59.188 13.165C58.8901 13.162 58.5962 13.0958 58.3257 12.9709C58.0552 12.8461 57.8144 12.6652 57.6189 12.4405C57.4234 12.2157 57.2777 11.952 57.1915 11.6668C57.1054 11.3816 57.0806 11.0814 57.1189 10.786L57.1169 10.785ZM63.7949 12.346C63.8025 12.7271 63.8886 13.1025 64.0477 13.4488C64.2069 13.7951 64.4357 14.1049 64.72 14.3589C65.0042 14.6128 65.3377 14.8054 65.6997 14.9247C66.0617 15.0439 66.4445 15.0873 66.824 15.052C67.1845 15.0786 67.5465 15.0275 67.8855 14.902C68.2245 14.7766 68.5326 14.5798 68.7889 14.325L68.927 14.85H70.814V9.733C70.814 7.924 70.0409 6.56601 67.4449 6.56601C66.3145 6.58056 65.2109 6.91252 64.26 7.52402L65.0599 8.978C65.7212 8.62089 66.4576 8.42524 67.209 8.40701C68.152 8.40701 68.677 8.88602 68.677 9.59802V10.123C68.1477 9.81334 67.542 9.65847 66.929 9.67603C65.049 9.67203 63.797 10.754 63.797 12.346H63.7949ZM65.927 12.283C65.927 11.619 66.498 11.155 67.317 11.155C68.136 11.155 68.725 11.573 68.725 12.283C68.725 12.964 68.136 13.396 67.335 13.396C66.534 13.396 65.929 12.949 65.929 12.283H65.927ZM75.9919 13.166C75.382 13.1525 74.8009 12.9032 74.3708 12.4705C73.9408 12.0377 73.695 11.4552 73.6853 10.8451C73.6756 10.2351 73.9026 9.64495 74.3187 9.19873C74.7348 8.75251 75.3077 8.48489 75.917 8.45203C76.6219 8.45804 77.2974 8.73477 77.804 9.22501L78.4039 7.431C77.675 6.86478 76.777 6.56013 75.854 6.56601C75.2873 6.54803 74.7229 6.64584 74.1953 6.85342C73.6677 7.06101 73.188 7.37402 72.7855 7.77332C72.383 8.17262 72.0663 8.6498 71.8545 9.17572C71.6427 9.70164 71.5405 10.2652 71.554 10.832C71.5379 11.3985 71.6393 11.9622 71.8516 12.4876C72.0639 13.013 72.3825 13.4888 72.7876 13.8852C73.1927 14.2815 73.6754 14.5897 74.2053 14.7906C74.7353 14.9914 75.301 15.0804 75.8669 15.052C76.7796 15.0543 77.6665 14.7497 78.385 14.187L77.814 12.442C77.3055 12.8843 76.6613 13.1397 75.9879 13.166H75.9919ZM79.192 14.851H81.324V10.677L84.0299 14.851H86.5299L83.469 10.429L86.313 6.76501H83.913L81.313 10.165V3.67401H79.1809L79.192 14.851Z" fill="#393939"/>
</svg>
